HIERARCHY
ROOT Root
{
  OFFSET 0.0 0.0 0.0
  CHANNELS 6 Xposition Yposition Zposition Zrotation Yrotation Xrotation
  JOINT Hips
  {
    OFFSET 0.0 100.0 0.0
    CHANNELS 6 Xposition Yposition Zposition Zrotation Yrotation Xrotation
    JOINT Spine1
    {
      OFFSET 5.003913 -0.037094 -0.013727
      CHANNELS 3 Zrotation Yrotation Xrotation
      JOINT Spine2
      {
        OFFSET 7.125363 -1e-06 0.0
        CHANNELS 3 Zrotation Yrotation Xrotation
        JOINT Chest
        {
          OFFSET 7.594027 1e-06 0.0
          CHANNELS 3 Zrotation Yrotation Xrotation
          JOINT Neck1
          {
            OFFSET 26.313086 -0.460272 -0.181672
            CHANNELS 3 Zrotation Yrotation Xrotation
            JOINT Neck2
            {
              OFFSET 8.045911 0.0 0.0
              CHANNELS 3 Zrotation Yrotation Xrotation
              JOINT Head
              {
                OFFSET 6.432774 0.0 0.0
                CHANNELS 3 Zrotation Yrotation Xrotation
                JOINT HeadEnd
                {
                  OFFSET 16.169773 0.06451 0.00362
                  CHANNELS 3 Zrotation Yrotation Xrotation
                }
                JOINT Jaw
                {
                  OFFSET 0.108741 3.12938 0.002639
                  CHANNELS 3 Zrotation Yrotation Xrotation
                }
                JOINT LeftEye
                {
                  OFFSET 4.45173 8.166359 3.206392
                  CHANNELS 3 Zrotation Yrotation Xrotation
                }
                JOINT RightEye
                {
                  OFFSET 4.436895 8.135758 -3.222429
                  CHANNELS 3 Zrotation Yrotation Xrotation
                }
              }
            }
          }
          JOINT LeftShoulder
          {
            OFFSET 23.218927 5.195579 1.621656
            CHANNELS 3 Zrotation Yrotation Xrotation
            JOINT LeftArm
            {
              OFFSET 15.902118 2e-06 -2e-06
              CHANNELS 3 Zrotation Yrotation Xrotation
              JOINT LeftForeArm
              {
                OFFSET 28.739307 0.0 -1e-06
                CHANNELS 3 Zrotation Yrotation Xrotation
                JOINT LeftHand
                {
                  OFFSET 27.093981 -4e-06 0.0
                  CHANNELS 3 Zrotation Yrotation Xrotation
                  JOINT LeftHandThumb1
                  {
                    OFFSET 2.276781 3.380274 0.83384
                    CHANNELS 3 Zrotation Yrotation Xrotation
                    JOINT LeftHandThumb2
                    {
                      OFFSET 4.705309 -1e-06 -1e-06
                      CHANNELS 3 Zrotation Yrotation Xrotation
                      JOINT LeftHandThumb3
                      {
                        OFFSET 2.798515 0.0 3e-06
                        CHANNELS 3 Zrotation Yrotation Xrotation
                        JOINT LeftHandThumbEnd
                        {
                          OFFSET 3.180793 4e-06 -4e-06
                          CHANNELS 3 Zrotation Yrotation Xrotation
                        }
                      }
                    }
                  }
                  JOINT LeftHandIndex1
                  {
                    OFFSET 3.247786 2.352677 0.137192
                    CHANNELS 3 Zrotation Yrotation Xrotation
                    JOINT LeftHandIndex2
                    {
                      OFFSET 6.367095 1e-06 0.0
                      CHANNELS 3 Zrotation Yrotation Xrotation
                      JOINT LeftHandIndex3
                      {
                        OFFSET 3.662364 0.0 0.0
                        CHANNELS 3 Zrotation Yrotation Xrotation
                        JOINT LeftHandIndex4
                        {
                          OFFSET 2.329242 4e-06 -4e-06
                          CHANNELS 3 Zrotation Yrotation Xrotation
                          JOINT LeftHandIndexEnd
                          {
                            OFFSET 2.767823 1e-06 0.0
                            CHANNELS 3 Zrotation Yrotation Xrotation
                          }
                        }
                      }
                    }
                  }
                  JOINT LeftHandMiddle1
                  {
                    OFFSET 3.163612 0.945023 -0.406112
                    CHANNELS 3 Zrotation Yrotation Xrotation
                    JOINT LeftHandMiddle2
                    {
                      OFFSET 6.276789 3e-06 0.0
                      CHANNELS 3 Zrotation Yrotation Xrotation
                      JOINT LeftHandMiddle3
                      {
                        OFFSET 4.35652 -1e-06 4e-06
                        CHANNELS 3 Zrotation Yrotation Xrotation
                        JOINT LeftHandMiddle4
                        {
                          OFFSET 2.996877 0.0 8e-06
                          CHANNELS 3 Zrotation Yrotation Xrotation
                          JOINT LeftHandMiddleEnd
                          {
                            OFFSET 2.323256 3e-06 -4e-06
                            CHANNELS 3 Zrotation Yrotation Xrotation
                          }
                        }
                      }
                    }
                  }
                  JOINT LeftHandRing1
                  {
                    OFFSET 2.882606 -0.309162 0.107445
                    CHANNELS 3 Zrotation Yrotation Xrotation
                    JOINT LeftHandRing2
                    {
                      OFFSET 6.033198 0.0 4e-06
                      CHANNELS 3 Zrotation Yrotation Xrotation
                      JOINT LeftHandRing3
                      {
                        OFFSET 4.350578 3e-06 0.0
                        CHANNELS 3 Zrotation Yrotation Xrotation
                        JOINT LeftHandRing4
                        {
                          OFFSET 2.651321 2e-06 -7e-06
                          CHANNELS 3 Zrotation Yrotation Xrotation
                          JOINT LeftHandRingEnd
                          {
                            OFFSET 1.937663 1e-06 -4e-06
                            CHANNELS 3 Zrotation Yrotation Xrotation
                          }
                        }
                      }
                    }
                  }
                  JOINT LeftHandPinky1
                  {
                    OFFSET 2.865315 -1.525436 0.575687
                    CHANNELS 3 Zrotation Yrotation Xrotation
                    JOINT LeftHandPinky2
                    {
                      OFFSET 5.54936 1e-06 -8e-06
                      CHANNELS 3 Zrotation Yrotation Xrotation
                      JOINT LeftHandPinky3
                      {
                        OFFSET 3.070974 0.0 -4e-06
                        CHANNELS 3 Zrotation Yrotation Xrotation
                        JOINT LeftHandPinky4
                        {
                          OFFSET 1.549672 1e-06 0.0
                          CHANNELS 3 Zrotation Yrotation Xrotation
                          JOINT LeftHandPinkyEnd
                          {
                            OFFSET 1.952123 0.0 0.0
                            CHANNELS 3 Zrotation Yrotation Xrotation
                          }
                        }
                      }
                    }
                  }
                }
              }
            }
          }
          JOINT RightShoulder
          {
            OFFSET 23.161716 5.296122 -1.380114
            CHANNELS 3 Zrotation Yrotation Xrotation
            JOINT RightArm
            {
              OFFSET -16.027195 -2e-06 1.1e-05
              CHANNELS 3 Zrotation Yrotation Xrotation
              JOINT RightForeArm
              {
                OFFSET -28.736639 4e-06 2e-06
                CHANNELS 3 Zrotation Yrotation Xrotation
                JOINT RightHand
                {
                  OFFSET -27.133619 6e-06 0.0
                  CHANNELS 3 Zrotation Yrotation Xrotation
                  JOINT RightHandThumb1
                  {
                    OFFSET -2.274328 -3.351035 -0.83067
                    CHANNELS 3 Zrotation Yrotation Xrotation
                    JOINT RightHandThumb2
                    {
                      OFFSET -4.703594 -3e-06 2e-06
                      CHANNELS 3 Zrotation Yrotation Xrotation
                      JOINT RightHandThumb3
                      {
                        OFFSET -2.794935 -4e-06 -3e-06
                        CHANNELS 3 Zrotation Yrotation Xrotation
                        JOINT RightHandThumbEnd
                        {
                          OFFSET -3.183852 4e-06 1e-06
                          CHANNELS 3 Zrotation Yrotation Xrotation
                        }
                      }
                    }
                  }
                  JOINT RightHandIndex1
                  {
                    OFFSET -3.253496 -2.33755 -0.127667
                    CHANNELS 3 Zrotation Yrotation Xrotation
                    JOINT RightHandIndex2
                    {
                      OFFSET -6.344434 0.0 0.0
                      CHANNELS 3 Zrotation Yrotation Xrotation
                      JOINT RightHandIndex3
                      {
                        OFFSET -3.654871 0.0 -8e-06
                        CHANNELS 3 Zrotation Yrotation Xrotation
                        JOINT RightHandIndex4
                        {
                          OFFSET -2.327586 -1e-06 0.0
                          CHANNELS 3 Zrotation Yrotation Xrotation
                          JOINT RightHandIndexEnd
                          {
                            OFFSET -2.770001 3e-06 8e-06
                            CHANNELS 3 Zrotation Yrotation Xrotation
                          }
                        }
                      }
                    }
                  }
                  JOINT RightHandMiddle1
                  {
                    OFFSET -3.168223 -0.944764 0.411762
                    CHANNELS 3 Zrotation Yrotation Xrotation
                    JOINT RightHandMiddle2
                    {
                      OFFSET -6.266691 -1e-06 -4e-06
                      CHANNELS 3 Zrotation Yrotation Xrotation
                      JOINT RightHandMiddle3
                      {
                        OFFSET -4.348901 0.0 0.0
                        CHANNELS 3 Zrotation Yrotation Xrotation
                        JOINT RightHandMiddle4
                        {
                          OFFSET -3.00024 2e-06 -4e-06
                          CHANNELS 3 Zrotation Yrotation Xrotation
                          JOINT RightHandMiddleEnd
                          {
                            OFFSET -2.321477 -4e-06 -4e-06
                            CHANNELS 3 Zrotation Yrotation Xrotation
                          }
                        }
                      }
                    }
                  }
                  JOINT RightHandRing1
                  {
                    OFFSET -2.885654 0.293261 -0.119232
                    CHANNELS 3 Zrotation Yrotation Xrotation
                    JOINT RightHandRing2
                    {
                      OFFSET -6.032835 -1e-06 -4e-06
                      CHANNELS 3 Zrotation Yrotation Xrotation
                      JOINT RightHandRing3
                      {
                        OFFSET -4.33881 0.0 -4e-06
                        CHANNELS 3 Zrotation Yrotation Xrotation
                        JOINT RightHandRing4
                        {
                          OFFSET -2.654903 -4e-06 -4e-06
                          CHANNELS 3 Zrotation Yrotation Xrotation
                          JOINT RightHandRingEnd
                          {
                            OFFSET -1.935122 0.0 4e-06
                            CHANNELS 3 Zrotation Yrotation Xrotation
                          }
                        }
                      }
                    }
                  }
                  JOINT RightHandPinky1
                  {
                    OFFSET -2.866241 1.503904 -0.60527
                    CHANNELS 3 Zrotation Yrotation Xrotation
                    JOINT RightHandPinky2
                    {
                      OFFSET -5.553177 -2e-06 0.0
                      CHANNELS 3 Zrotation Yrotation Xrotation
                      JOINT RightHandPinky3
                      {
                        OFFSET -3.062664 -1e-06 -4e-06
                        CHANNELS 3 Zrotation Yrotation Xrotation
                        JOINT RightHandPinky4
                        {
                          OFFSET -1.546529 2e-06 4e-06
                          CHANNELS 3 Zrotation Yrotation Xrotation
                          JOINT RightHandPinkyEnd
                          {
                            OFFSET -1.952341 0.0 -4e-06
                            CHANNELS 3 Zrotation Yrotation Xrotation
                          }
                        }
                      }
                    }
                  }
                }
              }
            }
          }
        }
      }
    }
    JOINT LeftLeg
    {
      OFFSET -8.443107 2.567604 10.043214
      CHANNELS 3 Zrotation Yrotation Xrotation
      JOINT LeftShin
      {
        OFFSET 43.229198 1e-06 -1e-06
        CHANNELS 3 Zrotation Yrotation Xrotation
        JOINT LeftFoot
        {
          OFFSET 42.298611 1e-06 1e-06
          CHANNELS 3 Zrotation Yrotation Xrotation
          JOINT LeftToeBase
          {
            OFFSET 14.165858 1e-06 0.0
            CHANNELS 3 Zrotation Yrotation Xrotation
            JOINT LeftToeEnd
            {
              OFFSET 6.7141 -0.234461 0.0
              CHANNELS 3 Zrotation Yrotation Xrotation
            }
          }
        }
      }
    }
    JOINT RightLeg
    {
      OFFSET -8.303923 2.592729 -10.047278
      CHANNELS 3 Zrotation Yrotation Xrotation
      JOINT RightShin
      {
        OFFSET -43.369682 0.0 1e-06
        CHANNELS 3 Zrotation Yrotation Xrotation
        JOINT RightFoot
        {
          OFFSET -42.260784 4e-06 2e-06
          CHANNELS 3 Zrotation Yrotation Xrotation
          JOINT RightToeBase
          {
            OFFSET -14.222245 -2e-06 -1e-06
            CHANNELS 3 Zrotation Yrotation Xrotation
            JOINT RightToeEnd
            {
              OFFSET -6.660062 0.232574 -2e-06
              CHANNELS 3 Zrotation Yrotation Xrotation
            }
          }
        }
      }
    }
  }
}
MOTION
Frames: 4
Frame Time: 0.03333333333333333
0.0 0.0 0.0 0.0 -0.0 0.0 -0.460616 48.785667 6.511801 95.023346 -53.495327 88.556816 16.501434 0.72379 -0.077691 -4.411575 -0.152289 -0.797598 19.387388 -0.004138 -3.514471 30.245546 -3.985353 2.339306 -2.621458 0.138466 -0.852442 -17.07601 -1.930146 -2.196188 6e-06 0.0 -0.0 -0.269076 0.128338 0.024965 -0.181939 0.330847 0.041502 -0.186718 -0.070046 0.015992 -8.695666 -73.566696 11.282545 82.096169 -1.80197 -25.00971 8.754946 -1.37021 -0.071149 4.45531 81.133087 13.027617 17.636621 -26.322725 52.411186 -19.466665 -14.3956 29.410393 -2e-06 -8.774821 -1e-06 15.770666 -17.560871 6.4422 -0.609776 -1.795653 -3.889328 -4.807087 -11.046809 -2.937851 4e-06 -20.976019 -1e-06 -5.019969 -25.033556 -4.031882 5e-06 -1e-06 0.0 -10.634533 -5.686969 -3.565587 10.573275 -17.922953 -3.113902 3e-06 -13.821211 0.0 -0.501776 -31.181505 -4.027016 -11.009826 -59.0439 6.851666 -13.982712 -7.150197 -2.875041 13.77273 -8.401492 -3.218243 0.347734 -34.211555 0.771654 -0.963028 -17.733366 2.621019 -0.0 -1e-06 -0.0 -17.346416 -20.095219 -4.201782 21.757557 -1.638374 3.866426 1e-06 -6.338825 0.0 -1.697588 -22.591749 -6.194007 -0.0 -8e-06 -2e-06 168.0858 -72.481979 16.301407 84.176178 -3.149915 -34.633663 7.264215 -0.409423 -0.047514 57.495911 70.765717 60.774021 22.182102 -20.375891 49.933323 -16.701817 -16.743534 28.476542 -4e-06 -12.690603 1e-06 16.226927 -17.108419 2.693874 -0.105919 -1.513856 -4.275882 -5.03904 -5.612873 -2.953557 3e-06 -11.020525 -3e-06 -6.111298 -15.89533 -3.840471 0.0 -1e-06 1e-06 -10.283371 -5.680288 -4.341838 11.028296 -11.302406 -2.372636 -1.384268 -14.238583 -6.320123 -0.625437 -26.924192 -3.827602 -4.468968 -49.165024 -3.73361 -13.708525 -7.363476 -3.720938 18.14115 -14.052739 -3.242678 6e-06 -18.78727 -3e-06 -0.429712 -8.456046 2.555503 0.0 0.0 -0.0 -15.923534 -20.094484 -5.473585 30.419218 -7.190827 1.735921 2e-06 -8.162921 -1e-06 -1.861903 -22.861473 -6.167943 0.0 -2e-06 -1e-06 128.269608 -0.784325 6.027043 104.128265 -0.013438 0.314265 -59.468647 23.429495 -8.223225 -11.371037 1.333997 2.010031 -0.999998 -0.0 -0.0 -49.586857 -11.314461 3.485843 101.211121 -1.98376 -0.108835 -48.18573 6.064025 -7.686068 -7.502736 0.486067 2.014463 -1.000002 0.0 1e-06 
0.0 0.0 0.0 0.0 -0.0 0.0 -0.210294 48.875328 6.65455 94.704689 -53.300797 88.737976 16.514971 0.885682 -0.038741 -4.500823 -0.04924 -0.699202 19.572479 0.05057 -3.325839 30.305471 -4.145585 2.148945 -2.632663 0.16412 -0.818187 -16.936127 -1.995987 -2.257522 5e-06 -0.0 -0.0 -0.271671 0.077273 0.018168 -0.159094 0.277448 0.029745 -0.166288 -0.115366 0.010381 -7.800428 -73.789658 10.60671 82.237625 -1.71728 -25.813881 8.446224 -1.340118 -0.064706 11.350132 80.677803 19.30673 17.636625 -26.322729 52.411194 -19.46666 -14.395598 29.410389 -2e-06 -8.774821 -3e-06 15.817728 -17.693155 6.366448 -0.609776 -1.795653 -3.889328 -4.807089 -11.046807 -2.93785 5e-06 -20.976015 0.0 -5.01997 -25.033552 -4.031878 6e-06 -1e-06 0.0 -10.634533 -5.686969 -3.565588 10.573272 -17.922947 -3.1139 3e-06 -13.821205 1e-06 -0.501776 -31.181498 -4.027013 -10.96441 -59.250381 6.807133 -13.982712 -7.150196 -2.875043 13.77273 -8.40149 -3.218241 0.347734 -34.21154 0.771655 -0.963029 -17.733366 2.62102 0.0 -1e-06 0.0 -17.346416 -20.095211 -4.201783 21.757557 -1.638376 3.866428 2e-06 -6.338824 1e-06 -1.697588 -22.591738 -6.194005 -1e-06 -8e-06 -2e-06 168.390793 -72.439812 16.277119 84.093903 -3.079377 -34.438625 6.834075 -0.299255 -0.041504 57.497448 70.559669 60.684013 22.182114 -20.375891 49.933323 -16.701811 -16.74353 28.476532 -2e-06 -12.690602 -1e-06 16.070997 -17.010782 2.779341 -0.105919 -1.513856 -4.275882 -5.039041 -5.612873 -2.953557 3e-06 -11.020525 -3e-06 -6.111297 -15.895334 -3.840471 1e-06 -1e-06 -0.0 -10.283369 -5.680288 -4.341839 11.028292 -11.302405 -2.372633 -1.384268 -14.238579 -6.320123 -0.625436 -26.924187 -3.827604 -4.486458 -49.264458 -3.59748 -13.708524 -7.363475 -3.720941 18.14115 -14.052739 -3.242675 6e-06 -18.78727 -3e-06 -0.429712 -8.456041 2.555503 0.0 -2e-06 -0.0 -15.923534 -20.094482 -5.473588 30.41921 -7.190827 1.735925 3e-06 -8.162922 -0.0 -1.861902 -22.861469 -6.167943 -0.0 -1e-06 -1e-06 128.654419 -0.601648 6.050489 103.936943 -0.048641 0.29613 -59.536186 23.257545 -8.094926 -11.161257 1.36362 1.977206 -0.999999 0.0 -0.0 -49.174313 -11.418973 3.304378 100.788597 -2.06652 -0.101395 -47.93055 6.096671 -7.608099 -7.365842 0.453846 2.036037 -1.000001 0.0 0.0 
0.0 0.0 0.0 0.0 -0.0 0.0 -0.003673 48.893459 6.725367 94.53801 -53.146408 88.83004 16.48617 0.965528 0.000602 -4.549507 0.076423 -0.597402 19.742266 0.063113 -3.20324 30.357319 -4.194223 2.030087 -2.633252 0.132824 -0.806785 -16.922323 -2.148727 -2.303506 6e-06 0.0 -0.0 -0.262959 0.050914 0.016346 -0.179652 0.242116 0.017161 -0.176868 -0.130884 0.014447 -6.837601 -73.743988 9.866684 82.284065 -1.583744 -26.223463 8.306092 -1.293353 -0.05978 13.622808 80.220222 21.140505 17.636633 -26.322729 52.411198 -19.46666 -14.395598 29.410393 -2e-06 -8.774822 -3e-06 15.848272 -17.766155 6.28884 -0.609776 -1.795654 -3.889329 -4.807089 -11.046811 -2.937851 4e-06 -20.976019 -1e-06 -5.019969 -25.033556 -4.031882 6e-06 -1e-06 -0.0 -10.634537 -5.686971 -3.565588 10.573277 -17.922951 -3.113902 4e-06 -13.821205 0.0 -0.501776 -31.181505 -4.027017 -10.863697 -59.318035 6.737183 -13.982716 -7.150198 -2.875043 13.772731 -8.401493 -3.218242 0.347735 -34.211552 0.771654 -0.963029 -17.73337 2.62102 0.0 0.0 0.0 -17.34642 -20.095217 -4.201783 21.757557 -1.638377 3.866428 1e-06 -6.338826 1e-06 -1.697589 -22.591745 -6.194006 -1e-06 -6e-06 -3e-06 168.825546 -72.440338 16.135204 83.836868 -2.969335 -34.242523 6.575361 -0.257323 -0.041949 58.250496 70.524246 61.629452 22.182121 -20.375898 49.933327 -16.701817 -16.74353 28.476534 -2e-06 -12.690603 -2e-06 16.054541 -16.893887 2.809079 -0.10592 -1.513856 -4.275882 -5.039041 -5.612872 -2.953557 4e-06 -11.020525 -2e-06 -6.111298 -15.895332 -3.840472 -0.0 -1e-06 0.0 -10.283372 -5.680288 -4.341839 11.028297 -11.302407 -2.372634 -1.384269 -14.238581 -6.320122 -0.625437 -26.924187 -3.827603 -4.462496 -49.313404 -3.534614 -13.708527 -7.363477 -3.72094 18.141151 -14.052739 -3.242675 7e-06 -18.78727 -2e-06 -0.429712 -8.456042 2.555504 0.0 1e-06 -0.0 -15.923539 -20.094484 -5.473585 30.419218 -7.190827 1.735926 3e-06 -8.162924 0.0 -1.861903 -22.861469 -6.167942 -0.0 -1e-06 -1e-06 128.926193 -0.402073 6.047744 103.881935 -0.064678 0.296092 -59.64632 23.079021 -7.988319 -11.169279 1.368932 1.956034 -1.0 0.0 0.0 -48.889675 -11.542944 3.259729 100.581718 -2.107649 -0.070614 -47.841434 6.411539 -7.507857 -7.300138 0.431018 2.055065 -1.000003 0.0 0.0 
0.0 0.0 0.0 0.0 -0.0 0.0 0.138472 48.869392 6.736746 94.439102 -53.129597 88.971527 16.428291 1.015652 0.026296 -4.579039 0.143368 -0.542576 19.786388 0.128783 -3.173824 30.393354 -4.199538 1.970695 -2.623306 0.116543 -0.822358 -16.940248 -2.264435 -2.284434 5e-06 0.0 -0.0 -0.25955 0.036947 0.014561 -0.231654 0.227337 0.001266 -0.214773 -0.144582 0.02353 -6.207085 -73.630501 9.361309 82.30481 -1.527791 -26.398369 8.282869 -1.293277 -0.06393 14.146247 79.956001 21.737591 17.636629 -26.322725 52.411175 -19.46665 -14.395592 29.410376 -1e-06 -8.774818 -4e-06 15.807625 -17.755333 6.27862 -0.609776 -1.795653 -3.889326 -4.80709 -11.046812 -2.937849 2e-06 -20.976019 1e-06 -5.019972 -25.03356 -4.031878 6e-06 1e-06 -0.0 -10.634531 -5.68697 -3.565585 10.573268 -17.922951 -3.113897 2e-06 -13.821208 1e-06 -0.50178 -31.181501 -4.027013 -10.729463 -59.331196 6.612124 -13.982711 -7.150198 -2.87504 13.772725 -8.401489 -3.218239 0.347731 -34.211552 0.771656 -0.963029 -17.733368 2.62102 0.0 0.0 0.0 -17.346413 -20.095215 -4.201779 21.757553 -1.638375 3.866428 1e-06 -6.338826 1e-06 -1.697591 -22.591745 -6.194005 -0.0 -4e-06 -2e-06 168.9151 -72.44136 16.185923 83.61132 -3.016799 -34.021935 6.573092 -0.244806 -0.044407 59.14106 70.602249 62.886406 22.182121 -20.375891 49.933308 -16.701813 -16.743528 28.476524 -2e-06 -12.690601 -2e-06 16.086735 -16.823261 2.846823 -0.105919 -1.513856 -4.275881 -5.039041 -5.61287 -2.953556 2e-06 -11.020525 -2e-06 -6.111297 -15.895334 -3.840469 -0.0 -2e-06 -1e-06 -10.283369 -5.680287 -4.341838 11.028295 -11.302406 -2.372632 -1.384268 -14.238579 -6.32012 -0.625439 -26.924192 -3.8276 -4.442574 -49.433361 -3.437735 -13.708526 -7.363475 -3.720939 18.141148 -14.05274 -3.242673 7e-06 -18.78727 -2e-06 -0.429711 -8.456042 2.555504 0.0 -1e-06 -0.0 -15.923536 -20.094482 -5.473584 30.41921 -7.190829 1.735929 3e-06 -8.162922 -0.0 -1.861901 -22.861469 -6.167942 -0.0 -5e-06 -1e-06 128.96759 -0.188512 6.118171 103.970978 -0.059845 0.307051 -60.001171 22.942873 -7.947097 -11.384774 1.360258 1.947374 -0.999996 1e-06 -1e-06 -48.804424 -11.726628 3.227384 100.553528 -2.087976 -0.043427 -47.95055 6.707433 -7.577062 -7.40044 0.427236 2.067167 -1.000005 0.0 0.0 
